<?xml version="1.0" encoding="UTF-8" standalone="no"?>
<!-- Created with Inkscape (http://www.inkscape.org/) -->

<svg
   xmlns:dc="http://purl.org/dc/elements/1.1/"
   xmlns:cc="http://creativecommons.org/ns#"
   xmlns:rdf="http://www.w3.org/1999/02/22-rdf-syntax-ns#"
   xmlns:svg="http://www.w3.org/2000/svg"
   xmlns="http://www.w3.org/2000/svg"
   xmlns:sodipodi="http://sodipodi.sourceforge.net/DTD/sodipodi-0.dtd"
   xmlns:inkscape="http://www.inkscape.org/namespaces/inkscape"
   width="744.09448819"
   height="1052.3622047"
   id="svg2"
   version="1.1"
   inkscape:version="0.47 r22583"
   sodipodi:docname="drawing_meera_font.svg">
  <defs
     id="defs4">
    <marker
       inkscape:stockid="Arrow1Lstart"
       orient="auto"
       refY="0.0"
       refX="0.0"
       id="Arrow1Lstart"
       style="overflow:visible">
      <path
         id="path3891"
         d="M 0.0,0.0 L 5.0,-5.0 L -12.5,0.0 L 5.0,5.0 L 0.0,0.0 z "
         style="fill-rule:evenodd;stroke:#000000;stroke-width:1.0pt;marker-start:none"
         transform="scale(0.8) translate(12.5,0)" />
    </marker>
    <inkscape:path-effect
       effect="spiro"
       id="path-effect3886"
       is_visible="true" />
    <inkscape:path-effect
       effect="spiro"
       id="path-effect3882"
       is_visible="true" />
    <inkscape:path-effect
       effect="spiro"
       id="path-effect3878"
       is_visible="true" />
    <inkscape:path-effect
       effect="spiro"
       id="path-effect3087"
       is_visible="true" />
    <inkscape:perspective
       sodipodi:type="inkscape:persp3d"
       inkscape:vp_x="0 : 526.18109 : 1"
       inkscape:vp_y="0 : 1000 : 0"
       inkscape:vp_z="744.09448 : 526.18109 : 1"
       inkscape:persp3d-origin="372.04724 : 350.78739 : 1"
       id="perspective3006" />
    <inkscape:path-effect
       effect="spiro"
       id="path-effect3886-6"
       is_visible="true" />
    <inkscape:perspective
       id="perspective3022"
       inkscape:persp3d-origin="0.5 : 0.33333333 : 1"
       inkscape:vp_z="1 : 0.5 : 1"
       inkscape:vp_y="0 : 1000 : 0"
       inkscape:vp_x="0 : 0.5 : 1"
       sodipodi:type="inkscape:persp3d" />
  </defs>
  <sodipodi:namedview
     id="base"
     pagecolor="#ffffff"
     bordercolor="#666666"
     borderopacity="1.0"
     inkscape:pageopacity="0.0"
     inkscape:pageshadow="2"
     inkscape:zoom="0.9899495"
     inkscape:cx="319.01275"
     inkscape:cy="280.62537"
     inkscape:document-units="px"
     inkscape:current-layer="layer1"
     showgrid="false"
     inkscape:window-width="1280"
     inkscape:window-height="999"
     inkscape:window-x="0"
     inkscape:window-y="0"
     inkscape:window-maximized="1"
     inkscape:object-paths="true" />
  <metadata
     id="metadata7">
    <rdf:RDF>
      <cc:Work
         rdf:about="">
        <dc:format>image/svg+xml</dc:format>
        <dc:type
           rdf:resource="http://purl.org/dc/dcmitype/StillImage" />
        <dc:title />
      </cc:Work>
    </rdf:RDF>
  </metadata>
  <g
     inkscape:label="Layer 1"
     inkscape:groupmode="layer"
     id="layer1">
    <g
       transform="translate(116.16754,2.0203051)"
       style="font-size:40px;font-style:normal;font-variant:normal;font-weight:500;font-stretch:normal;line-height:125%;letter-spacing:0px;word-spacing:0px;fill:#000000;fill-opacity:1;stroke:none;font-family:ori1Uni;-inkscape-font-specification:ori1Uni Medium"
       id="flowRoot2985">
      <path
         d="m 40.180664,806.76903 c -8.496116,-1e-5 -12.744159,-3.32032 -12.744141,-9.96094 l 0,-52.73438 -9.741211,0 0,-7.39746 9.741211,0 0,-18.89648 9.521485,0 0,18.89648 11.791992,0 0,7.39746 -11.791992,0 0,47.90039 c -2.8e-5,4.58986 2.343719,6.88478 7.03125,6.88477 1.90426,10e-6 3.491172,-0.0732 4.760742,-0.21973 l 0,7.39746 c -3.320349,0.48828 -6.176791,0.73242 -8.569336,0.73243"
         style="font-size:150px;font-style:italic;font-weight:bold;font-family:Meera;-inkscape-font-specification:Meera Bold Italic"
         id="path3004" />
      <path
         d="m 62.519531,768.75633 0,35.08301 -9.667969,0 0,-67.30957 8.789063,0 0,14.57519 c 7.080051,-11.03509 13.818326,-16.55266 20.214844,-16.55273 0.927693,7e-5 2.123981,0.0733 3.588867,0.21973 l 0,9.66797 c -8.349645,0.24419 -14.257842,2.31939 -17.724609,6.22558 -3.46682,3.85747 -5.200216,9.88774 -5.200196,18.09082"
         style="font-size:150px;font-style:italic;font-weight:bold;font-family:Meera;-inkscape-font-specification:Meera Bold Italic"
         id="path3007" />
      <path
         d="m 144.25781,806.0366 c -6.39654,0 -10.05865,-3.6621 -10.98633,-10.98632 -8.54496,7.32422 -16.72367,10.98632 -24.53613,10.98632 -6.68948,0 -12.084979,-1.66015 -16.186522,-4.98046 -4.101573,-3.32031 -6.152353,-8.15429 -6.152344,-14.50196 -9e-6,-8.05661 3.369129,-13.62301 10.107422,-16.69922 2.197245,-0.97652 10.009734,-2.53902 23.437504,-4.6875 3.27143,-0.53707 5.66401,-1.02535 7.17773,-1.46484 2.97846,-1.07418 4.85834,-2.46578 5.63965,-4.1748 0.24408,-0.83004 0.36615,-2.73433 0.36621,-5.71289 -6e-5,-7.32417 -5.54204,-10.98627 -16.62598,-10.98633 -10.30276,6e-5 -16.04006,4.02837 -17.211911,12.08496 l -9.594726,0 c 0.878893,-13.57416 9.960915,-20.36126 27.246097,-20.36133 17.08978,7e-5 25.6347,5.85944 25.63476,17.57812 l 0,40.20997 c -6e-5,4.10157 2.29486,6.15234 6.88477,6.15234 0.43938,0 1.0009,0 1.68457,0 l 0,6.37207 c -2.78328,0.78125 -5.0782,1.17187 -6.88477,1.17187 M 133.125,768.75633 c -2.63677,1.17191 -6.12798,2.12406 -10.47363,2.85645 -2.63676,0.39065 -6.54301,1.04983 -11.71875,1.97754 -9.61917,2.19729 -14.428733,6.44533 -14.428714,12.74414 -1.9e-5,7.81251 4.882784,11.71875 14.648434,11.71875 8.25191,0 14.47749,-2.58789 18.67676,-7.76368 2.19721,-2.6367 3.29584,-5.32224 3.2959,-8.05664 l 0,-13.47656"
         style="font-size:150px;font-style:italic;font-weight:bold;font-family:Meera;-inkscape-font-specification:Meera Bold Italic"
         id="path3009" />
      <path
         d="m 192.30469,803.83934 0,-47.02149 c -6e-5,-4.49213 -1.39166,-8.00775 -4.17481,-10.54687 -2.78325,-2.539 -6.42094,-3.80853 -10.91308,-3.80859 -6.49418,6e-5 -11.52347,2.53912 -15.08789,7.61718 -3.0762,4.39458 -4.61428,9.88774 -4.61426,16.4795 l 0,37.28027 -9.44824,0 0,-67.30957 8.56933,0 0,13.5498 c 6.6406,-10.35149 14.57516,-15.52727 23.80371,-15.52734 6.24995,7e-5 11.30366,1.4405 15.16114,4.32129 4.05267,3.22272 6.07903,7.76373 6.0791,13.62305 l 0,51.34277 -9.375,0"
         style="font-size:150px;font-style:italic;font-weight:bold;font-family:Meera;-inkscape-font-specification:Meera Bold Italic"
         id="path3011" />
      <path
         d="m 227.75391,805.59715 c -17.52932,0 -26.51369,-7.17773 -26.95313,-21.5332 l 9.96094,0 c 1.46482,8.8379 7.42185,13.25684 17.87109,13.25683 4.19918,10e-6 7.86128,-0.75682 10.98633,-2.2705 4.00385,-2.05077 6.00581,-5.12694 6.00586,-9.22852 -5e-5,-5.02927 -3.78423,-8.44724 -11.35254,-10.25391 -9.61917,-2.24606 -15.28323,-3.68649 -16.99219,-4.32128 -7.32423,-2.53903 -11.84083,-5.71286 -13.5498,-9.52149 -0.78126,-2.05074 -1.17189,-4.51655 -1.17188,-7.39746 -1e-5,-6.59174 2.63671,-11.62103 7.91016,-15.08789 4.68748,-3.12493 10.62009,-4.68743 17.79785,-4.6875 15.96675,7e-5 24.14545,6.37213 24.53613,19.11621 l -10.10742,0 c -0.58599,-7.2265 -5.51762,-10.83978 -14.79492,-10.83984 -10.30276,6e-5 -15.45412,3.66216 -15.4541,10.98633 -2e-5,4.93168 4.76071,8.54496 14.28223,10.83984 10.30268,2.34379 16.60151,4.07718 18.89648,5.20019 6.54291,3.22269 9.81439,8.25198 9.81445,15.08789 -6e-5,6.98244 -2.88092,12.3047 -8.64258,15.9668 -5.02934,3.125 -11.37699,4.6875 -19.04296,4.6875"
         style="font-size:150px;font-style:italic;font-weight:bold;font-family:Meera;-inkscape-font-specification:Meera Bold Italic"
         id="path3013" />
      <path
         d="m 281.07422,805.59715 c -17.52932,0 -26.51368,-7.17773 -26.95313,-21.5332 l 9.96094,0 c 1.46482,8.8379 7.42185,13.25684 17.87109,13.25683 4.19918,10e-6 7.86129,-0.75682 10.98633,-2.2705 4.00386,-2.05077 6.00581,-5.12694 6.00586,-9.22852 -5e-5,-5.02927 -3.78423,-8.44724 -11.35254,-10.25391 -9.61917,-2.24606 -15.28323,-3.68649 -16.99218,-4.32128 -7.32424,-2.53903 -11.84084,-5.71286 -13.54981,-9.52149 -0.78126,-2.05074 -1.17189,-4.51655 -1.17187,-7.39746 -2e-5,-6.59174 2.6367,-11.62103 7.91015,-15.08789 4.68748,-3.12493 10.62009,-4.68743 17.79785,-4.6875 15.96675,7e-5 24.14545,6.37213 24.53614,19.11621 l -10.10743,0 c -0.58598,-7.2265 -5.51762,-10.83978 -14.79492,-10.83984 -10.30276,6e-5 -15.45412,3.66216 -15.4541,10.98633 -2e-5,4.93168 4.76072,8.54496 14.28223,10.83984 10.30269,2.34379 16.60151,4.07718 18.89648,5.20019 6.54291,3.22269 9.81439,8.25198 9.81446,15.08789 -7e-5,6.98244 -2.88093,12.3047 -8.64258,15.9668 -5.02935,3.125 -11.377,4.6875 -19.04297,4.6875"
         style="font-size:150px;font-style:italic;font-weight:bold;font-family:Meera;-inkscape-font-specification:Meera Bold Italic"
         id="path3015" />
      <path
         d="m 308.10059,722.10106 0,-12.01172 10.83984,0 0,12.01172 -10.83984,0 m 0.21972,81.73828 0,-66.94336 10.62012,0 0,66.94336 -10.62012,0"
         style="font-size:150px;font-style:italic;font-weight:bold;font-family:Meera;-inkscape-font-specification:Meera Bold Italic"
         id="path3017" />
      <path
         d="m 357.83203,805.23094 c -8.30081,0 -15.62503,-3.833 -21.97266,-11.49902 l 0,36.54785 -9.52148,0 0,-93.96973 8.42285,0 0,12.23145 c 6.15232,-9.32611 13.7695,-13.98919 22.85156,-13.98926 9.86323,7e-5 17.30952,3.63776 22.33887,10.91309 4.34564,6.49419 6.51849,14.84379 6.51856,25.04882 -7e-5,9.71682 -2.29499,17.72463 -6.88477,24.02344 -5.02936,7.12891 -12.28032,10.69336 -21.75293,10.69336 m -1.97754,-62.40234 c -6.83597,6e-5 -12.03616,3.05181 -15.60058,9.15527 -2.92971,4.93169 -4.39456,10.88871 -4.39454,17.87109 -2e-5,10.98636 3.12498,18.77443 9.375,23.36426 3.12497,2.39259 6.66501,3.58888 10.62012,3.58887 6.98238,10e-6 12.32905,-2.92968 16.04004,-8.78906 3.2226,-4.78514 4.83392,-10.74216 4.83399,-17.8711 -7e-5,-7.17769 -1.51374,-13.23237 -4.54102,-18.16406 -3.66216,-6.10346 -9.10649,-9.15521 -16.33301,-9.15527"
         style="font-size:150px;font-style:italic;font-weight:bold;font-family:Meera;-inkscape-font-specification:Meera Bold Italic"
         id="path3019" />
    </g>
    <rect
       style="fill:#d40000;fill-opacity:1;stroke:#d40000"
       id="rect3022"
       width="29.294424"
       height="29.294424"
       x="114.30965"
       y="708.91034" />
    <rect
       style="fill:#d40000;fill-opacity:1;stroke:#d40000"
       id="rect3022-9"
       width="29.294424"
       height="29.294424"
       x="413.211"
       y="806.46924" />
    <path
       style="fill:none;stroke:#d40000;stroke-width:3.56352949;stroke-linecap:butt;stroke-linejoin:miter;stroke-miterlimit:4;stroke-opacity:1;stroke-dasharray:10.69058847,3.56352949;stroke-dashoffset:0"
       d="m 120.75346,732.17378 c 0.85389,0.41609 1.82466,0.58895 2.76969,0.49317 0.94503,-0.0958 1.86138,-0.45988 2.61443,-1.03883 0.75304,-0.57895 1.34043,-1.37095 1.67587,-2.25962 0.33544,-0.88867 0.41789,-1.87126 0.23523,-2.8034 -0.18265,-0.93214 -0.62985,-1.81095 -1.27588,-2.50729 -0.64603,-0.69635 -1.4889,-1.20807 -2.40475,-1.46 -0.91586,-0.25192 -1.90186,-0.24325 -2.81315,0.0247 -0.91128,0.26798 -1.74502,0.79444 -2.37872,1.50203 -0.67058,0.74878 -1.10836,1.68054 -1.41207,2.63873 -0.3037,0.95818 -0.48134,1.95075 -0.69098,2.93381 -1.9666,9.22171 -6.74387,17.59602 -9.46366,26.62432 -3.26674,10.84389 -3.47071,22.58924 -0.60645,33.54632 2.86426,10.95707 8.78551,21.09464 16.90501,28.98991 14.19788,13.80577 34.36878,20.18358 54.15325,21.05181 21.01857,0.92239 41.80783,-3.82222 62.54934,-7.34652 20.74151,-3.5243 42.33492,-5.80255 62.58149,-0.0835 13.43789,3.7958 25.6386,10.9407 38.36355,16.69055 12.72495,5.74985 26.69857,10.1961 40.50043,8.07625 14.48318,-2.22449 27.57112,-12.08074 33.70963,-25.38598"
       id="path3085"
       inkscape:path-effect="#path-effect3087"
       inkscape:original-d="m 120.75346,732.17378 c -0.52576,-2.68306 -1.01019,-5.37784 -1.57728,-8.04922 -0.41861,-1.97202 -1.33113,3.75442 -2.10305,5.57254 -2.95707,6.96489 -9.46366,19.11877 -9.46366,26.62432 0,12.37158 5.311,58.22301 16.29856,62.53623 18.51121,7.26671 34.99047,15.40997 54.15325,21.05181 42.39099,12.48063 84.00511,-7.43003 125.13083,-7.43003 19.63536,0 49.08507,24.7668 78.86398,24.7668 10.6222,0 47.11681,-25.38598 33.70963,-25.38598"
       inkscape:connector-curvature="0" />
    <g
       style="font-size:40px;font-style:normal;font-variant:normal;font-weight:500;font-stretch:normal;line-height:125%;letter-spacing:0px;word-spacing:0px;fill:#000000;fill-opacity:1;stroke:none;font-family:WenQuanYi Zen Hei;-inkscape-font-specification:WenQuanYi Zen Hei Medium"
       id="text4535">
      <path
         d="m 131.14059,724.2265 4.67579,5.90625 -2.60157,1.89844 -4.14843,-6.22266 -4.11329,6.22266 -2.53125,-1.79297 4.5,-6.01172 -7.0664,-1.96875 0.91406,-2.98828 6.99609,2.56641 -0.3164,-7.41797 3.26953,0 -0.31641,7.41797 6.9961,-2.56641 0.91406,2.98828 -7.17188,1.96875"
         style="font-size:72px;font-weight:normal;font-family:Meera;-inkscape-font-specification:Meera"
         id="path3003" />
    </g>
    <g
       style="font-size:40px;font-style:normal;font-variant:normal;font-weight:500;font-stretch:normal;line-height:125%;letter-spacing:0px;word-spacing:0px;fill:#000000;fill-opacity:1;stroke:none;font-family:WenQuanYi Zen Hei;-inkscape-font-specification:WenQuanYi Zen Hei Medium"
       id="text4535-2">
      <path
         d="m 429.85626,822.03918 4.67578,5.90625 -2.60156,1.89844 -4.14844,-6.22265 -4.11328,6.22265 -2.53125,-1.79297 4.5,-6.01172 -7.0664,-1.96875 0.91406,-2.98828 6.99609,2.56641 -0.3164,-7.41797 3.26953,0 -0.31641,7.41797 6.99609,-2.56641 0.91407,2.98828 -7.17188,1.96875"
         style="font-size:72px;font-weight:normal;font-family:Meera;-inkscape-font-specification:Meera"
         id="path3006" />
    </g>
    <g
       style="font-size:40px;font-style:normal;font-variant:normal;font-weight:normal;font-stretch:normal;line-height:125%;letter-spacing:0px;word-spacing:0px;fill:#000000;fill-opacity:1;stroke:none;font-family:Meera;-inkscape-font-specification:Meera"
       id="text3007"
       transform="translate(46,-6)">
      <path
         d="m 185.27588,729.23328 c -1.81251,0 -2.71876,-0.70834 -2.71875,-2.125 l 0,-11.25 -2.07813,0 0,-1.57813 2.07813,0 0,-4.03125 2.03125,0 0,4.03125 2.51562,0 0,1.57813 -2.51562,0 0,10.21875 c -1e-5,0.97916 0.49999,1.46875 1.5,1.46875 0.40624,0 0.74478,-0.0156 1.01562,-0.0469 l 0,1.57813 c -0.70834,0.10416 -1.31771,0.15625 -1.82812,0.15625"
         style="font-size:32px;text-align:start;letter-spacing:1.11000001px;word-spacing:-4.28000164px;text-anchor:start;font-family:Meera;-inkscape-font-specification:Meera"
         id="path3012" />
      <path
         d="m 191.10463,721.88953 c 0.0312,1.5625 0.40624,2.80208 1.125,3.71875 0.79166,1.07291 1.9427,1.60937 3.45312,1.60937 1.99999,0 3.34374,-0.96875 4.03125,-2.90625 l 2.07813,0 c -0.69793,3.11459 -2.76043,4.67188 -6.1875,4.67188 -2.17709,0 -3.84896,-0.73959 -5.01563,-2.21875 -1.05208,-1.33333 -1.57812,-3.09896 -1.57812,-5.29688 0,-2.17707 0.53645,-3.95832 1.60937,-5.34375 1.17708,-1.53123 2.85416,-2.29686 5.03125,-2.29687 2.94791,10e-6 4.91666,1.22918 5.90625,3.6875 0.35416,0.94792 0.54686,2.40626 0.57813,4.375 l -11.03125,0 m 4.54687,-6.29688 c -1.35417,10e-6 -2.41146,0.44272 -3.17187,1.32813 -0.75001,0.87501 -1.19271,2.02084 -1.32813,3.4375 l 8.71875,0 c 0.0417,-0.13541 0.0625,-0.2552 0.0625,-0.35938 -1e-5,-1.19791 -0.40105,-2.22915 -1.20312,-3.09375 -0.8021,-0.87499 -1.82814,-1.31249 -3.07813,-1.3125"
         style="font-size:32px;text-align:start;letter-spacing:1.11000001px;word-spacing:-4.28000164px;text-anchor:start;font-family:Meera;-inkscape-font-specification:Meera"
         id="path3014" />
      <path
         d="m 202.91775,728.60828 0,-20 2.3125,0 0,20 -2.3125,0"
         style="font-size:32px;text-align:start;letter-spacing:1.11000001px;word-spacing:-4.28000164px;text-anchor:start;font-family:Meera;-inkscape-font-specification:Meera"
         id="path3016" />
      <path
         d="m 209.82463,721.88953 c 0.0312,1.5625 0.40624,2.80208 1.125,3.71875 0.79166,1.07291 1.9427,1.60937 3.45312,1.60937 1.99999,0 3.34374,-0.96875 4.03125,-2.90625 l 2.07813,0 c -0.69793,3.11459 -2.76043,4.67188 -6.1875,4.67188 -2.17709,0 -3.84896,-0.73959 -5.01563,-2.21875 -1.05208,-1.33333 -1.57812,-3.09896 -1.57812,-5.29688 0,-2.17707 0.53645,-3.95832 1.60937,-5.34375 1.17708,-1.53123 2.85416,-2.29686 5.03125,-2.29687 2.94791,10e-6 4.91666,1.22918 5.90625,3.6875 0.35416,0.94792 0.54686,2.40626 0.57813,4.375 l -11.03125,0 m 4.54687,-6.29688 c -1.35417,10e-6 -2.41146,0.44272 -3.17187,1.32813 -0.75001,0.87501 -1.19271,2.02084 -1.32813,3.4375 l 8.71875,0 c 0.0417,-0.13541 0.0625,-0.2552 0.0625,-0.35938 -1e-5,-1.19791 -0.40105,-2.22915 -1.20312,-3.09375 -0.8021,-0.87499 -1.82814,-1.31249 -3.07813,-1.3125"
         style="font-size:32px;text-align:start;letter-spacing:1.11000001px;word-spacing:-4.28000164px;text-anchor:start;font-family:Meera;-inkscape-font-specification:Meera"
         id="path3018" />
      <path
         d="m 228.3565,728.90515 c -1.77084,0 -3.33334,-0.81771 -4.6875,-2.45312 l 0,7.79687 -2.03125,0 0,-20.04687 1.79688,0 0,2.60937 c 1.31249,-1.98957 2.93749,-2.98436 4.875,-2.98437 2.10415,10e-6 3.69269,0.77605 4.76562,2.32812 0.92707,1.38543 1.39061,3.16668 1.39063,5.34375 -2e-5,2.07292 -0.4896,3.78125 -1.46875,5.125 -1.07293,1.52084 -2.61981,2.28125 -4.64063,2.28125 m -0.42187,-13.3125 c -1.45834,10e-6 -2.56772,0.65106 -3.32813,1.95313 -0.625,1.05209 -0.9375,2.32292 -0.9375,3.8125 0,2.34375 0.66666,4.00521 2,4.98437 0.66666,0.51042 1.42187,0.76563 2.26563,0.76563 1.48957,0 2.63019,-0.625 3.42187,-1.875 0.68749,-1.02083 1.03124,-2.29166 1.03125,-3.8125 -1e-5,-1.53124 -0.32293,-2.82291 -0.96875,-3.875 -0.78126,-1.30207 -1.94272,-1.95312 -3.48437,-1.95313"
         style="font-size:32px;text-align:start;letter-spacing:1.11000001px;word-spacing:-4.28000164px;text-anchor:start;font-family:Meera;-inkscape-font-specification:Meera"
         id="path3020" />
      <path
         d="m 244.7165,728.60828 0,-9.96875 c -1e-5,-0.95833 -0.30209,-1.70312 -0.90625,-2.23438 -0.60417,-0.54165 -1.38542,-0.81249 -2.34375,-0.8125 -1.39584,10e-6 -2.47396,0.53647 -3.23437,1.60938 -0.64584,0.91667 -0.96876,2.08334 -0.96875,3.5 l 0,7.90625 -1.98438,0 0,-20 1.98438,0 0,8.0625 c 1.43749,-1.84374 3.07812,-2.76561 4.92187,-2.76563 1.35416,2e-5 2.43749,0.32293 3.25,0.96875 0.82291,0.63543 1.23436,1.57814 1.23438,2.82813 l 0,10.90625 -1.95313,0"
         style="font-size:32px;text-align:start;letter-spacing:1.11000001px;word-spacing:-4.28000164px;text-anchor:start;font-family:Meera;-inkscape-font-specification:Meera"
         id="path3022" />
      <path
         d="m 254.17026,728.98328 c -2.17709,0 -3.82813,-0.73959 -4.95313,-2.21875 -1.02083,-1.3125 -1.53125,-3.10417 -1.53125,-5.375 0,-2.22916 0.51042,-4.01041 1.53125,-5.34375 1.125,-1.47916 2.76562,-2.21874 4.92188,-2.21875 2.21874,10e-6 3.89061,0.73959 5.01562,2.21875 0.99999,1.33334 1.49999,3.15105 1.5,5.45312 -10e-6,2.19792 -0.51043,3.96875 -1.53125,5.3125 -1.15626,1.44792 -2.8073,2.17188 -4.95312,2.17188 m 0,-13.39063 c -1.54168,10e-6 -2.69272,0.62501 -3.45313,1.875 -0.625,1.03126 -0.9375,2.33855 -0.9375,3.92188 0,1.58334 0.3125,2.89063 0.9375,3.92187 0.76041,1.27084 1.91145,1.90625 3.45313,1.90625 1.5104,0 2.66144,-0.625 3.45312,-1.875 0.63541,-1.02083 0.95311,-2.31249 0.95313,-3.875 -2e-5,-3.91665 -1.46876,-5.87499 -4.40625,-5.875"
         style="font-size:32px;text-align:start;letter-spacing:1.11000001px;word-spacing:-4.28000164px;text-anchor:start;font-family:Meera;-inkscape-font-specification:Meera"
         id="path3024" />
      <path
         d="m 270.999,728.60828 0,-10.03125 c -1e-5,-0.95833 -0.29689,-1.70833 -0.89062,-2.25 -0.59376,-0.54166 -1.36981,-0.81249 -2.32813,-0.8125 -1.38542,10e-6 -2.45834,0.54168 -3.21875,1.625 -0.65625,0.93751 -0.98438,2.10938 -0.98437,3.51562 l 0,7.95313 -2.01563,0 0,-14.35938 1.82813,0 0,2.89063 c 1.41666,-2.20832 3.10936,-3.31249 5.07812,-3.3125 1.33332,10e-6 2.41145,0.3073 3.23438,0.92187 0.86457,0.68751 1.29686,1.65626 1.29687,2.90625 l 0,10.95313 -2,0"
         style="font-size:32px;text-align:start;letter-spacing:1.11000001px;word-spacing:-4.28000164px;text-anchor:start;font-family:Meera;-inkscape-font-specification:Meera"
         id="path3026" />
      <path
         d="m 279.56213,731.6864 c -0.72918,1.9375 -1.94793,2.90625 -3.65625,2.90625 -0.51042,0 -0.98438,-0.099 -1.42188,-0.29687 l 0,-1.76563 c 0.40625,0.0729 0.76562,0.10937 1.07813,0.10938 0.97916,-1e-5 1.66666,-0.51042 2.0625,-1.53125 l 0.92187,-2.39063 -4.95312,-14.51562 2.15625,0 3.89062,11.79687 4.21875,-11.79687 2.1875,0 -6.48437,17.48437"
         style="font-size:32px;text-align:start;letter-spacing:1.11000001px;word-spacing:-4.28000164px;text-anchor:start;font-family:Meera;-inkscape-font-specification:Meera"
         id="path3028" />
      <path
         d="m 296.59588,729.23328 c -1.81251,0 -2.71876,-0.70834 -2.71875,-2.125 l 0,-11.25 -2.07813,0 0,-1.57813 2.07813,0 0,-4.03125 2.03125,0 0,4.03125 2.51562,0 0,1.57813 -2.51562,0 0,10.21875 c -1e-5,0.97916 0.49999,1.46875 1.5,1.46875 0.40624,0 0.74478,-0.0156 1.01562,-0.0469 l 0,1.57813 c -0.70834,0.10416 -1.31771,0.15625 -1.82812,0.15625"
         style="font-size:32px;text-align:start;letter-spacing:1.11000001px;word-spacing:-4.28000164px;text-anchor:start;font-family:Meera;-inkscape-font-specification:Meera"
         id="path3030" />
      <path
         d="m 306.81525,728.98328 c -2.17709,0 -3.82813,-0.73959 -4.95312,-2.21875 -1.02084,-1.3125 -1.53125,-3.10417 -1.53125,-5.375 0,-2.22916 0.51041,-4.01041 1.53125,-5.34375 1.12499,-1.47916 2.76562,-2.21874 4.92187,-2.21875 2.21874,10e-6 3.89062,0.73959 5.01563,2.21875 0.99998,1.33334 1.49998,3.15105 1.5,5.45312 -2e-5,2.19792 -0.51043,3.96875 -1.53125,5.3125 -1.15626,1.44792 -2.8073,2.17188 -4.95313,2.17188 m 0,-13.39063 c -1.54167,10e-6 -2.69271,0.62501 -3.45312,1.875 -0.62501,1.03126 -0.93751,2.33855 -0.9375,3.92188 -10e-6,1.58334 0.31249,2.89063 0.9375,3.92187 0.76041,1.27084 1.91145,1.90625 3.45312,1.90625 1.51041,0 2.66145,-0.625 3.45313,-1.875 0.6354,-1.02083 0.95311,-2.31249 0.95312,-3.875 -10e-6,-3.91665 -1.46876,-5.87499 -4.40625,-5.875"
         style="font-size:32px;text-align:start;letter-spacing:1.11000001px;word-spacing:-4.28000164px;text-anchor:start;font-family:Meera;-inkscape-font-specification:Meera"
         id="path3032" />
      <path
         d="m 320.61275,728.98328 c -2.17709,0 -3.82813,-0.73959 -4.95313,-2.21875 -1.02083,-1.3125 -1.53125,-3.10417 -1.53125,-5.375 0,-2.22916 0.51042,-4.01041 1.53125,-5.34375 1.125,-1.47916 2.76562,-2.21874 4.92188,-2.21875 2.21874,10e-6 3.89061,0.73959 5.01562,2.21875 0.99999,1.33334 1.49999,3.15105 1.5,5.45312 -1e-5,2.19792 -0.51043,3.96875 -1.53125,5.3125 -1.15626,1.44792 -2.8073,2.17188 -4.95312,2.17188 m 0,-13.39063 c -1.54168,10e-6 -2.69272,0.62501 -3.45313,1.875 -0.625,1.03126 -0.9375,2.33855 -0.9375,3.92188 0,1.58334 0.3125,2.89063 0.9375,3.92187 0.76041,1.27084 1.91145,1.90625 3.45313,1.90625 1.5104,0 2.66144,-0.625 3.45312,-1.875 0.63541,-1.02083 0.95311,-2.31249 0.95313,-3.875 -2e-5,-3.91665 -1.46876,-5.87499 -4.40625,-5.875"
         style="font-size:32px;text-align:start;letter-spacing:1.11000001px;word-spacing:-4.28000164px;text-anchor:start;font-family:Meera;-inkscape-font-specification:Meera"
         id="path3034" />
      <path
         d="m 328.03525,728.60828 0,-20 2.3125,0 0,20 -2.3125,0"
         style="font-size:32px;text-align:start;letter-spacing:1.11000001px;word-spacing:-4.28000164px;text-anchor:start;font-family:Meera;-inkscape-font-specification:Meera"
         id="path3036" />
      <path
         d="m 342.489,728.60828 -5.09375,-8.03125 -2.48438,2.42187 0,5.60938 -1.98437,0 0,-20 1.98437,0 0,12.15625 6.54688,-6.4375 2.53125,0 -4.95313,4.82812 5.9375,9.45313 -2.48437,0"
         style="font-size:32px;text-align:start;letter-spacing:1.11000001px;word-spacing:-4.28000164px;text-anchor:start;font-family:Meera;-inkscape-font-specification:Meera"
         id="path3038" />
      <path
         d="m 345.42712,711.17078 0,-2.5625 2.3125,0 0,2.5625 -2.3125,0 m 0.0469,17.4375 0,-14.28125 2.26562,0 0,14.28125 -2.26562,0"
         style="font-size:32px;text-align:start;letter-spacing:1.11000001px;word-spacing:-4.28000164px;text-anchor:start;font-family:Meera;-inkscape-font-specification:Meera"
         id="path3040" />
      <path
         d="m 354.75587,729.23328 c -1.8125,0 -2.71875,-0.70834 -2.71875,-2.125 l 0,-11.25 -2.07812,0 0,-1.57813 2.07812,0 0,-4.03125 2.03125,0 0,4.03125 2.51563,0 0,1.57813 -2.51563,0 0,10.21875 c 0,0.97916 0.5,1.46875 1.5,1.46875 0.40625,0 0.74479,-0.0156 1.01563,-0.0469 l 0,1.57813 c -0.70834,0.10416 -1.31772,0.15625 -1.82813,0.15625"
         style="font-size:32px;text-align:start;letter-spacing:1.11000001px;word-spacing:-4.28000164px;text-anchor:start;font-family:Meera;-inkscape-font-specification:Meera"
         id="path3042" />
    </g>
    <g
       transform="matrix(0.10136287,0,0,0.09463465,394.57017,690.73723)"
       id="g2823">
      <g
         transform="matrix(0.82087064,0,0,0.82087064,64.548147,45.235762)"
         id="g2819">
        <path
           style="color:#000000;fill:#000000;stroke:none;stroke-width:1;marker:none;visibility:visible;display:inline;overflow:visible;enable-background:accumulate"
           d="m 360.34375,22.90625 c -126.51507,0 -229.625,103.10993 -229.625,229.625 0,126.51507 103.10993,229.625 229.625,229.625 126.51507,0 229.625,-103.10993 229.625,-229.625 0,-126.51507 -103.10993,-229.625 -229.625,-229.625 z"
           id="path2815" />
        <path
           style="color:#000000;fill:#ffffff;stroke:none;stroke-width:1;marker:none;visibility:visible;display:inline;overflow:visible;enable-background:accumulate"
           d="m 563.92828,252.52121 c 0,112.4429 -91.15298,203.59589 -203.59588,203.59589 -112.44291,0 -203.59589,-91.15299 -203.59589,-203.59589 0,-112.4429 91.15298,-203.595887 203.59589,-203.595887 112.4429,0 203.59588,91.152987 203.59588,203.595887 z"
           id="path2813" />
      </g>
      <path
         sodipodi:nodetypes="csssssssssssssssssssssssssssssccsssssccssssc"
         id="path2232"
         d="m 413.03146,370.50198 c 10.4561,-3.25844 21.8697,-7.68203 25.71185,-9.96512 2.58149,-1.53404 2.94537,-2.05119 2.05217,-2.91639 -6.47168,-6.26874 -51.999,-46.15755 -52.39964,-45.90994 -0.29368,0.1815 -1.03688,3.02487 -1.65156,6.3186 -1.21331,6.50146 -2.35644,7.98919 -6.13721,7.98735 -3.11302,-0.002 -5.16592,-1.74561 -8.15,-6.92399 -1.30084,-2.25739 -3.40394,-5.43499 -4.67356,-7.06134 -1.26961,-1.62634 -3.83544,-5.68965 -5.70183,-9.02958 -1.86639,-3.33992 -5.14643,-8.84303 -7.28898,-12.22912 -4.91165,-7.76241 -10.6271,-17.22565 -12.78908,-21.17528 -0.91535,-1.67222 -3.17378,-5.08058 -5.01874,-7.57414 -1.84495,-2.49356 -4.19717,-6.18748 -5.22715,-8.20871 -1.03,-2.02123 -3.98259,-6.81479 -6.56133,-10.65236 -2.57873,-3.83757 -5.67735,-8.92901 -6.88582,-11.31429 -1.20846,-2.38529 -3.42766,-6.2639 -4.93156,-8.61915 -3.45802,-5.41553 -7.48414,-13.4637 -8.17982,-16.35138 -0.42409,-1.76036 -0.067,-2.65867 1.72881,-4.34861 2.42139,-2.27869 2.5806,-2.27802 10.28427,0.043 2.6056,0.78504 4.90634,1.25846 5.11275,1.05206 0.37117,-0.37118 -17.25847,-68.70015 -17.88778,-69.32946 -0.46204,-0.46204 -21.10335,16.87437 -21.10335,17.72447 0,0.38544 -1.79655,2.48844 -3.99234,4.67333 -2.19579,2.18489 -5.31202,6.06681 -6.92496,8.62649 -2.54264,4.03509 -3.05335,5.72703 -3.84059,12.7235 -2.49868,22.20662 3.3589,55.03494 14.47555,81.12702 5.98455,14.04643 9.58003,21.08751 13.8305,27.0844 1.92168,2.71125 4.50761,6.96121 5.74651,9.44434 6.65606,13.34072 27.63273,37.66303 42.27063,49.01251 10.10132,7.83204 31.53654,21.83905 36.49072,23.84517 14.48876,5.86693 18.30763,6.10186 31.64154,1.94661 z m 36.95195,-25.17301 c 3.14076,-7.71902 3.22869,-8.16983 1.84769,-9.47272 -1.16702,-1.10098 -37.94811,-33.12799 -43.02409,-37.46307 -1.18625,-1.0131 -2.37875,-0.63862 -9.75737,3.06415 -7.07892,3.55237 -8.22627,4.39141 -7.26773,5.31476 3.50157,3.37303 54.46741,47.09799 54.66599,46.89942 0.13079,-0.13077 1.72178,-3.88494 3.53551,-8.34254 z M 336.92909,197.7094 c 3.4806,-2.65071 6.31817,-4.86706 6.30569,-4.92524 -0.94376,-4.40032 -14.69872,-58.19647 -14.94236,-58.44012 -0.47194,-0.47193 -18.0298,-2.93409 -18.38565,-2.57824 -0.22266,0.22266 4.59741,18.85807 17.83038,68.93616 0.93751,3.54785 0.35466,3.73761 9.19194,-2.99256 z"
         style="fill:#000000" />
    </g>
    <path
       style="fill:#000000;fill-opacity:0"
       d="m 423.75042,732.01617 c -11.18018,-2.02861 -20.41418,-8.98627 -24.84928,-18.72353 -3.42134,-7.51154 -3.40013,-16.50684 0.0569,-24.13115 3.99076,-8.80145 12.48975,-15.56532 22.75357,-18.10833 4.46832,-1.10708 11.5135,-1.10708 15.98181,0 10.26383,2.54301 18.76281,9.30688 22.75358,18.10833 3.45702,7.62431 3.47823,16.61961 0.0569,24.13115 -3.00164,6.59009 -8.36841,12.10529 -15.0871,15.50438 -6.42658,3.25131 -14.70793,4.48174 -21.66638,3.21915 z m 14.62945,-3.90835 c 10.16559,-2.99786 17.29345,-9.84546 20.29849,-19.5004 1.0819,-3.47604 1.17361,-10.32612 0.18636,-13.91956 -2.71979,-9.89959 -10.8775,-17.71715 -21.30506,-20.41671 -4.29909,-1.11297 -11.4152,-1.11297 -15.71429,0 -10.42756,2.69956 -18.58527,10.51712 -21.30505,20.41671 -0.98725,3.59344 -0.89555,10.44352 0.18635,13.91956 2.92109,9.3852 10.02716,16.38419 19.5812,19.28614 3.96521,1.2044 5.66649,1.411 10.46608,1.27097 3.48176,-0.10157 5.15571,-0.33414 7.60592,-1.05671 z"
       id="path3052" />
  </g>
</svg>
