<?xml version="1.0" encoding="UTF-8" standalone="no"?>
<!-- Created with Inkscape (http://www.inkscape.org/) -->

<svg
   xmlns:dc="http://purl.org/dc/elements/1.1/"
   xmlns:cc="http://creativecommons.org/ns#"
   xmlns:rdf="http://www.w3.org/1999/02/22-rdf-syntax-ns#"
   xmlns:svg="http://www.w3.org/2000/svg"
   xmlns="http://www.w3.org/2000/svg"
   xmlns:sodipodi="http://sodipodi.sourceforge.net/DTD/sodipodi-0.dtd"
   xmlns:inkscape="http://www.inkscape.org/namespaces/inkscape"
   width="744.09448819"
   height="1052.3622047"
   id="svg2"
   version="1.1"
   inkscape:version="0.47 r22583"
   sodipodi:docname="drawing_meera_font.svg">
  <defs
     id="defs4">
    <marker
       inkscape:stockid="Arrow1Lstart"
       orient="auto"
       refY="0.0"
       refX="0.0"
       id="Arrow1Lstart"
       style="overflow:visible">
      <path
         id="path3891"
         d="M 0.0,0.0 L 5.0,-5.0 L -12.5,0.0 L 5.0,5.0 L 0.0,0.0 z "
         style="fill-rule:evenodd;stroke:#000000;stroke-width:1.0pt;marker-start:none"
         transform="scale(0.8) translate(12.5,0)" />
    </marker>
    <inkscape:path-effect
       effect="spiro"
       id="path-effect3886"
       is_visible="true" />
    <inkscape:path-effect
       effect="spiro"
       id="path-effect3882"
       is_visible="true" />
    <inkscape:path-effect
       effect="spiro"
       id="path-effect3878"
       is_visible="true" />
    <inkscape:path-effect
       effect="spiro"
       id="path-effect3087"
       is_visible="true" />
    <inkscape:perspective
       sodipodi:type="inkscape:persp3d"
       inkscape:vp_x="0 : 526.18109 : 1"
       inkscape:vp_y="0 : 1000 : 0"
       inkscape:vp_z="744.09448 : 526.18109 : 1"
       inkscape:persp3d-origin="372.04724 : 350.78739 : 1"
       id="perspective3006" />
    <inkscape:path-effect
       effect="spiro"
       id="path-effect3886-6"
       is_visible="true" />
    <inkscape:perspective
       id="perspective3022"
       inkscape:persp3d-origin="0.5 : 0.33333333 : 1"
       inkscape:vp_z="1 : 0.5 : 1"
       inkscape:vp_y="0 : 1000 : 0"
       inkscape:vp_x="0 : 0.5 : 1"
       sodipodi:type="inkscape:persp3d" />
  </defs>
  <sodipodi:namedview
     id="base"
     pagecolor="#ffffff"
     bordercolor="#666666"
     borderopacity="1.0"
     inkscape:pageopacity="0.0"
     inkscape:pageshadow="2"
     inkscape:zoom="0.9899495"
     inkscape:cx="325.1992"
     inkscape:cy="307.17649"
     inkscape:document-units="px"
     inkscape:current-layer="layer1"
     showgrid="false"
     inkscape:window-width="1280"
     inkscape:window-height="949"
     inkscape:window-x="0"
     inkscape:window-y="25"
     inkscape:window-maximized="1"
     inkscape:object-paths="true" />
  <metadata
     id="metadata7">
    <rdf:RDF>
      <cc:Work
         rdf:about="">
        <dc:format>image/svg+xml</dc:format>
        <dc:type
           rdf:resource="http://purl.org/dc/dcmitype/StillImage" />
        <dc:title />
      </cc:Work>
    </rdf:RDF>
  </metadata>
  <g
     inkscape:label="Layer 1"
     inkscape:groupmode="layer"
     id="layer1">
    <g
       transform="translate(116.16754,2.0203051)"
       style="font-size:40px;font-style:normal;font-variant:normal;font-weight:500;font-stretch:normal;line-height:125%;letter-spacing:0px;word-spacing:0px;fill:#000000;fill-opacity:1;stroke:none;font-family:ori1Uni;-inkscape-font-specification:ori1Uni Medium"
       id="flowRoot2985">
      <path
         d="m 28.180664,806.76903 c -8.496116,-1e-5 -12.744159,-3.32032 -12.744141,-9.96094 l 0,-52.73438 -9.741211,0 0,-7.39746 9.741211,0 0,-18.89648 9.521485,0 0,18.89648 11.791992,0 0,7.39746 -11.791992,0 0,47.90039 c -2.8e-5,4.58986 2.343719,6.88478 7.03125,6.88477 1.90426,10e-6 3.491172,-0.0732 4.760742,-0.21973 l 0,7.39746 c -3.320349,0.48828 -6.176791,0.73242 -8.569336,0.73243"
         style="font-size:150px;font-style:italic;font-weight:bold;font-family:Meera;-inkscape-font-specification:Meera Bold Italic"
         id="path3004" />
      <path
         d="m 50.519531,768.75633 0,35.08301 -9.667969,0 0,-67.30957 8.789063,0 0,14.57519 c 7.080051,-11.03509 13.818326,-16.55266 20.214844,-16.55273 0.927693,7e-5 2.123981,0.0733 3.588867,0.21973 l 0,9.66797 c -8.349645,0.24419 -14.257842,2.31939 -17.724609,6.22558 -3.46682,3.85747 -5.200216,9.88774 -5.200196,18.09082"
         style="font-size:150px;font-style:italic;font-weight:bold;font-family:Meera;-inkscape-font-specification:Meera Bold Italic"
         id="path3007" />
      <path
         d="m 130.25781,806.0366 c -6.39654,0 -10.05865,-3.6621 -10.98633,-10.98632 -8.54496,7.32422 -16.72367,10.98632 -24.53613,10.98632 -6.68948,0 -12.084979,-1.66015 -16.186522,-4.98046 -4.101573,-3.32031 -6.152353,-8.15429 -6.152344,-14.50196 -9e-6,-8.05661 3.369129,-13.62301 10.107422,-16.69922 2.197245,-0.97652 10.009734,-2.53902 23.437504,-4.6875 3.27143,-0.53707 5.66401,-1.02535 7.17773,-1.46484 2.97846,-1.07418 4.85834,-2.46578 5.63965,-4.1748 0.24408,-0.83004 0.36615,-2.73433 0.36621,-5.71289 -6e-5,-7.32417 -5.54204,-10.98627 -16.62598,-10.98633 -10.30276,6e-5 -16.04006,4.02837 -17.211911,12.08496 l -9.594726,0 c 0.878893,-13.57416 9.960915,-20.36126 27.246097,-20.36133 17.08978,7e-5 25.6347,5.85944 25.63476,17.57812 l 0,40.20997 c -6e-5,4.10157 2.29486,6.15234 6.88477,6.15234 0.43938,0 1.0009,0 1.68457,0 l 0,6.37207 c -2.78328,0.78125 -5.0782,1.17187 -6.88477,1.17187 M 119.125,768.75633 c -2.63677,1.17191 -6.12798,2.12406 -10.47363,2.85645 -2.63676,0.39065 -6.54301,1.04983 -11.71875,1.97754 -9.61917,2.19729 -14.428733,6.44533 -14.428714,12.74414 -1.9e-5,7.81251 4.882784,11.71875 14.648434,11.71875 8.25191,0 14.47749,-2.58789 18.67676,-7.76368 2.19721,-2.6367 3.29584,-5.32224 3.2959,-8.05664 l 0,-13.47656"
         style="font-size:150px;font-style:italic;font-weight:bold;font-family:Meera;-inkscape-font-specification:Meera Bold Italic"
         id="path3009" />
      <path
         d="m 186.30469,803.83934 0,-47.02149 c -6e-5,-4.49213 -1.39166,-8.00775 -4.17481,-10.54687 -2.78325,-2.539 -6.42094,-3.80853 -10.91308,-3.80859 -6.49418,6e-5 -11.52347,2.53912 -15.08789,7.61718 -3.0762,4.39458 -4.61428,9.88774 -4.61426,16.4795 l 0,37.28027 -9.44824,0 0,-67.30957 8.56933,0 0,13.5498 c 6.6406,-10.35149 14.57516,-15.52727 23.80371,-15.52734 6.24995,7e-5 11.30366,1.4405 15.16114,4.32129 4.05267,3.22272 6.07903,7.76373 6.0791,13.62305 l 0,51.34277 -9.375,0"
         style="font-size:150px;font-style:italic;font-weight:bold;font-family:Meera;-inkscape-font-specification:Meera Bold Italic"
         id="path3011" />
      <path
         d="m 227.75391,805.59715 c -17.52932,0 -26.51369,-7.17773 -26.95313,-21.5332 l 9.96094,0 c 1.46482,8.8379 7.42185,13.25684 17.87109,13.25683 4.19918,10e-6 7.86128,-0.75682 10.98633,-2.2705 4.00385,-2.05077 6.00581,-5.12694 6.00586,-9.22852 -5e-5,-5.02927 -3.78423,-8.44724 -11.35254,-10.25391 -9.61917,-2.24606 -15.28323,-3.68649 -16.99219,-4.32128 -7.32423,-2.53903 -11.84083,-5.71286 -13.5498,-9.52149 -0.78126,-2.05074 -1.17189,-4.51655 -1.17188,-7.39746 -1e-5,-6.59174 2.63671,-11.62103 7.91016,-15.08789 4.68748,-3.12493 10.62009,-4.68743 17.79785,-4.6875 15.96675,7e-5 24.14545,6.37213 24.53613,19.11621 l -10.10742,0 c -0.58599,-7.2265 -5.51762,-10.83978 -14.79492,-10.83984 -10.30276,6e-5 -15.45412,3.66216 -15.4541,10.98633 -2e-5,4.93168 4.76071,8.54496 14.28223,10.83984 10.30268,2.34379 16.60151,4.07718 18.89648,5.20019 6.54291,3.22269 9.81439,8.25198 9.81445,15.08789 -6e-5,6.98244 -2.88092,12.3047 -8.64258,15.9668 -5.02934,3.125 -11.37699,4.6875 -19.04296,4.6875"
         style="font-size:150px;font-style:italic;font-weight:bold;font-family:Meera;-inkscape-font-specification:Meera Bold Italic"
         id="path3013" />
      <path
         d="m 287.07422,805.59715 c -17.52932,0 -26.51368,-7.17773 -26.95313,-21.5332 l 9.96094,0 c 1.46482,8.8379 7.42185,13.25684 17.87109,13.25683 4.19918,10e-6 7.86129,-0.75682 10.98633,-2.2705 4.00386,-2.05077 6.00581,-5.12694 6.00586,-9.22852 -5e-5,-5.02927 -3.78423,-8.44724 -11.35254,-10.25391 -9.61917,-2.24606 -15.28323,-3.68649 -16.99218,-4.32128 -7.32424,-2.53903 -11.84084,-5.71286 -13.54981,-9.52149 -0.78126,-2.05074 -1.17189,-4.51655 -1.17187,-7.39746 -2e-5,-6.59174 2.6367,-11.62103 7.91015,-15.08789 4.68748,-3.12493 10.62009,-4.68743 17.79785,-4.6875 15.96675,7e-5 24.14545,6.37213 24.53614,19.11621 l -10.10743,0 c -0.58598,-7.2265 -5.51762,-10.83978 -14.79492,-10.83984 -10.30276,6e-5 -15.45412,3.66216 -15.4541,10.98633 -2e-5,4.93168 4.76072,8.54496 14.28223,10.83984 10.30269,2.34379 16.60151,4.07718 18.89648,5.20019 6.54291,3.22269 9.81439,8.25198 9.81446,15.08789 -7e-5,6.98244 -2.88093,12.3047 -8.64258,15.9668 -5.02935,3.125 -11.377,4.6875 -19.04297,4.6875"
         style="font-size:150px;font-style:italic;font-weight:bold;font-family:Meera;-inkscape-font-specification:Meera Bold Italic"
         id="path3015" />
      <path
         d="m 319.15898,721.1038 0,-11.67052 10.83984,0 0,11.67052 -10.83984,0 m 0.21972,79.41654 0,-65.04186 10.62012,0 0,65.04186 -10.62012,0"
         style="font-size:150px;font-style:italic;font-weight:bold;font-family:Meera;-inkscape-font-specification:Meera Bold Italic"
         id="path3017" />
      <path
         d="m 367.83203,805.23094 c -8.30081,0 -15.62503,-3.833 -21.97266,-11.49902 l 0,36.54785 -9.52148,0 0,-93.96973 8.42285,0 0,12.23145 c 6.15232,-9.32611 13.7695,-13.98919 22.85156,-13.98926 9.86323,7e-5 17.30952,3.63776 22.33887,10.91309 4.34564,6.49419 6.51849,14.84379 6.51856,25.04882 -7e-5,9.71682 -2.29499,17.72463 -6.88477,24.02344 -5.02936,7.12891 -12.28032,10.69336 -21.75293,10.69336 m -1.97754,-62.40234 c -6.83597,6e-5 -12.03616,3.05181 -15.60058,9.15527 -2.92971,4.93169 -4.39456,10.88871 -4.39454,17.87109 -2e-5,10.98636 3.12498,18.77443 9.375,23.36426 3.12497,2.39259 6.66501,3.58888 10.62012,3.58887 6.98238,10e-6 12.32905,-2.92968 16.04004,-8.78906 3.2226,-4.78514 4.83392,-10.74216 4.83399,-17.8711 -7e-5,-7.17769 -1.51374,-13.23237 -4.54102,-18.16406 -3.66216,-6.10346 -9.10649,-9.15521 -16.33301,-9.15527"
         style="font-size:150px;font-style:italic;font-weight:bold;font-family:Meera;-inkscape-font-specification:Meera Bold Italic"
         id="path3019" />
    </g>
    <rect
       style="fill:#d40000;fill-opacity:1;stroke:#d40000"
       id="rect3022"
       width="29.294424"
       height="29.294424"
       x="102.30965"
       y="708.91034" />
    <rect
       style="fill:#d40000;fill-opacity:1;stroke:#d40000"
       id="rect3022-9"
       width="29.294424"
       height="29.294424"
       x="423.211"
       y="802.54065" />
    <path
       style="fill:none;stroke:#d40000;stroke-width:3.58859563;stroke-linecap:butt;stroke-linejoin:miter;stroke-miterlimit:4;stroke-opacity:1;stroke-dasharray:10.7657851, 3.58859503;stroke-dashoffset:0"
       d="m 113.90289,723.94261 c 0.71787,0.19507 1.48641,0.20033 2.20688,0.0151 0.72046,-0.18523 1.39117,-0.56051 1.92593,-1.07763 0.53476,-0.51712 0.93233,-1.17486 1.14162,-1.88872 0.20928,-0.71385 0.2298,-1.48213 0.0589,-2.20614 -0.17089,-0.724 -0.53279,-1.40202 -1.03919,-1.94695 -0.5064,-0.54492 -1.15612,-0.95547 -1.86568,-1.17888 -0.70955,-0.22342 -1.47728,-0.25919 -2.20453,-0.1027 -0.72726,0.15648 -1.41233,0.50485 -1.9672,1.00033 -0.70928,0.63337 -1.1916,1.48641 -1.53174,2.3744 -0.34013,0.888 -0.54887,1.81958 -0.79264,2.73871 -2.27406,8.5742 -7.58333,16.03789 -10.459616,24.42927 -3.452352,10.07201 -3.218097,21.27684 0.144249,31.37925 3.362347,10.10242 9.766847,19.09397 17.869567,26.00121 16.27711,13.87557 38.46686,18.93844 59.85221,19.31621 23.19832,0.4098 46.15506,-4.11445 69.13343,-7.32762 22.97837,-3.21317 46.65012,-5.09048 69.16596,0.51015 14.72742,3.66332 28.47242,10.40908 42.68411,15.73304 14.21169,5.32396 29.47607,9.27603 44.47938,6.99188 14.88856,-2.26668 28.69901,-10.90092 37.25718,-23.29305"
       id="path3085"
       inkscape:path-effect="#path-effect3087"
       inkscape:original-d="m 113.90289,723.94261 c -0.5811,-2.46186 -1.11652,-4.93445 -1.74326,-7.38559 -0.46268,-1.80945 -1.47123,3.44489 -2.32438,5.11311 -3.26827,6.39066 -10.459616,17.54253 -10.459616,24.42927 0,11.35163 5.869946,53.42285 18.013816,57.38046 20.45927,6.66761 38.67278,14.1395 59.85221,19.31621 46.85216,11.45165 92.84568,-6.81747 138.29939,-6.81747 21.70176,0 54.25072,22.72492 87.16349,22.72492 11.74006,0 52.0753,-23.29305 37.25718,-23.29305"
       inkscape:connector-curvature="0" />
    <g
       style="font-size:40px;font-style:normal;font-variant:normal;font-weight:500;font-stretch:normal;line-height:125%;letter-spacing:0px;word-spacing:0px;fill:#000000;fill-opacity:1;stroke:none;font-family:WenQuanYi Zen Hei;-inkscape-font-specification:WenQuanYi Zen Hei Medium"
       id="text4535"
       transform="translate(-12,0)">
      <path
         d="m 131.14059,724.2265 4.67579,5.90625 -2.60157,1.89844 -4.14843,-6.22266 -4.11329,6.22266 -2.53125,-1.79297 4.5,-6.01172 -7.0664,-1.96875 0.91406,-2.98828 6.99609,2.56641 -0.3164,-7.41797 3.26953,0 -0.31641,7.41797 6.9961,-2.56641 0.91406,2.98828 -7.17188,1.96875"
         style="font-size:72px;font-weight:normal;font-family:Meera;-inkscape-font-specification:Meera"
         id="path3003" />
    </g>
    <g
       style="font-size:40px;font-style:normal;font-variant:normal;font-weight:500;font-stretch:normal;line-height:125%;letter-spacing:0px;word-spacing:0px;fill:#000000;fill-opacity:1;stroke:none;font-family:WenQuanYi Zen Hei;-inkscape-font-specification:WenQuanYi Zen Hei Medium"
       id="text4535-2"
       transform="translate(9.9999957,-3.9285714)">
      <path
         d="m 429.85626,822.03918 4.67578,5.90625 -2.60156,1.89844 -4.14844,-6.22265 -4.11328,6.22265 -2.53125,-1.79297 4.5,-6.01172 -7.0664,-1.96875 0.91406,-2.98828 6.99609,2.56641 -0.3164,-7.41797 3.26953,0 -0.31641,7.41797 6.99609,-2.56641 0.91407,2.98828 -7.17188,1.96875"
         style="font-size:72px;font-weight:normal;font-family:Meera;-inkscape-font-specification:Meera"
         id="path3006" />
    </g>
    <g
       transform="matrix(0.10136287,0,0,0.09463465,404.57017,688.73723)"
       id="g2823">
      <g
         transform="matrix(0.82087064,0,0,0.82087064,64.548147,45.235762)"
         id="g2819">
        <path
           style="color:#000000;fill:#000000;stroke:none;stroke-width:1;marker:none;visibility:visible;display:inline;overflow:visible;enable-background:accumulate"
           d="m 360.34375,22.90625 c -126.51507,0 -229.625,103.10993 -229.625,229.625 0,126.51507 103.10993,229.625 229.625,229.625 126.51507,0 229.625,-103.10993 229.625,-229.625 0,-126.51507 -103.10993,-229.625 -229.625,-229.625 z"
           id="path2815" />
        <path
           style="color:#000000;fill:#ffffff;stroke:none;stroke-width:1;marker:none;visibility:visible;display:inline;overflow:visible;enable-background:accumulate"
           d="m 563.92828,252.52121 c 0,112.4429 -91.15298,203.59589 -203.59588,203.59589 -112.44291,0 -203.59589,-91.15299 -203.59589,-203.59589 0,-112.4429 91.15298,-203.595887 203.59589,-203.595887 112.4429,0 203.59588,91.152987 203.59588,203.595887 z"
           id="path2813" />
      </g>
      <path
         sodipodi:nodetypes="csssssssssssssssssssssssssssssccsssssccssssc"
         id="path2232"
         d="m 413.03146,370.50198 c 10.4561,-3.25844 21.8697,-7.68203 25.71185,-9.96512 2.58149,-1.53404 2.94537,-2.05119 2.05217,-2.91639 -6.47168,-6.26874 -51.999,-46.15755 -52.39964,-45.90994 -0.29368,0.1815 -1.03688,3.02487 -1.65156,6.3186 -1.21331,6.50146 -2.35644,7.98919 -6.13721,7.98735 -3.11302,-0.002 -5.16592,-1.74561 -8.15,-6.92399 -1.30084,-2.25739 -3.40394,-5.43499 -4.67356,-7.06134 -1.26961,-1.62634 -3.83544,-5.68965 -5.70183,-9.02958 -1.86639,-3.33992 -5.14643,-8.84303 -7.28898,-12.22912 -4.91165,-7.76241 -10.6271,-17.22565 -12.78908,-21.17528 -0.91535,-1.67222 -3.17378,-5.08058 -5.01874,-7.57414 -1.84495,-2.49356 -4.19717,-6.18748 -5.22715,-8.20871 -1.03,-2.02123 -3.98259,-6.81479 -6.56133,-10.65236 -2.57873,-3.83757 -5.67735,-8.92901 -6.88582,-11.31429 -1.20846,-2.38529 -3.42766,-6.2639 -4.93156,-8.61915 -3.45802,-5.41553 -7.48414,-13.4637 -8.17982,-16.35138 -0.42409,-1.76036 -0.067,-2.65867 1.72881,-4.34861 2.42139,-2.27869 2.5806,-2.27802 10.28427,0.043 2.6056,0.78504 4.90634,1.25846 5.11275,1.05206 0.37117,-0.37118 -17.25847,-68.70015 -17.88778,-69.32946 -0.46204,-0.46204 -21.10335,16.87437 -21.10335,17.72447 0,0.38544 -1.79655,2.48844 -3.99234,4.67333 -2.19579,2.18489 -5.31202,6.06681 -6.92496,8.62649 -2.54264,4.03509 -3.05335,5.72703 -3.84059,12.7235 -2.49868,22.20662 3.3589,55.03494 14.47555,81.12702 5.98455,14.04643 9.58003,21.08751 13.8305,27.0844 1.92168,2.71125 4.50761,6.96121 5.74651,9.44434 6.65606,13.34072 27.63273,37.66303 42.27063,49.01251 10.10132,7.83204 31.53654,21.83905 36.49072,23.84517 14.48876,5.86693 18.30763,6.10186 31.64154,1.94661 z m 36.95195,-25.17301 c 3.14076,-7.71902 3.22869,-8.16983 1.84769,-9.47272 -1.16702,-1.10098 -37.94811,-33.12799 -43.02409,-37.46307 -1.18625,-1.0131 -2.37875,-0.63862 -9.75737,3.06415 -7.07892,3.55237 -8.22627,4.39141 -7.26773,5.31476 3.50157,3.37303 54.46741,47.09799 54.66599,46.89942 0.13079,-0.13077 1.72178,-3.88494 3.53551,-8.34254 z M 336.92909,197.7094 c 3.4806,-2.65071 6.31817,-4.86706 6.30569,-4.92524 -0.94376,-4.40032 -14.69872,-58.19647 -14.94236,-58.44012 -0.47194,-0.47193 -18.0298,-2.93409 -18.38565,-2.57824 -0.22266,0.22266 4.59741,18.85807 17.83038,68.93616 0.93751,3.54785 0.35466,3.73761 9.19194,-2.99256 z"
         style="fill:#000000" />
    </g>
    <path
       style="fill:#000000;fill-opacity:0"
       d="m 423.75042,732.01617 c -11.18018,-2.02861 -20.41418,-8.98627 -24.84928,-18.72353 -3.42134,-7.51154 -3.40013,-16.50684 0.0569,-24.13115 3.99076,-8.80145 12.48975,-15.56532 22.75357,-18.10833 4.46832,-1.10708 11.5135,-1.10708 15.98181,0 10.26383,2.54301 18.76281,9.30688 22.75358,18.10833 3.45702,7.62431 3.47823,16.61961 0.0569,24.13115 -3.00164,6.59009 -8.36841,12.10529 -15.0871,15.50438 -6.42658,3.25131 -14.70793,4.48174 -21.66638,3.21915 z m 14.62945,-3.90835 c 10.16559,-2.99786 17.29345,-9.84546 20.29849,-19.5004 1.0819,-3.47604 1.17361,-10.32612 0.18636,-13.91956 -2.71979,-9.89959 -10.8775,-17.71715 -21.30506,-20.41671 -4.29909,-1.11297 -11.4152,-1.11297 -15.71429,0 -10.42756,2.69956 -18.58527,10.51712 -21.30505,20.41671 -0.98725,3.59344 -0.89555,10.44352 0.18635,13.91956 2.92109,9.3852 10.02716,16.38419 19.5812,19.28614 3.96521,1.2044 5.66649,1.411 10.46608,1.27097 3.48176,-0.10157 5.15571,-0.33414 7.60592,-1.05671 z"
       id="path3052" />
  </g>
</svg>
