<?xml version="1.0" encoding="UTF-8" standalone="no"?>
<!-- Created with Inkscape (http://www.inkscape.org/) -->

<svg
   xmlns:dc="http://purl.org/dc/elements/1.1/"
   xmlns:cc="http://creativecommons.org/ns#"
   xmlns:rdf="http://www.w3.org/1999/02/22-rdf-syntax-ns#"
   xmlns:svg="http://www.w3.org/2000/svg"
   xmlns="http://www.w3.org/2000/svg"
   xmlns:sodipodi="http://sodipodi.sourceforge.net/DTD/sodipodi-0.dtd"
   xmlns:inkscape="http://www.inkscape.org/namespaces/inkscape"
   width="744.09448819"
   height="1052.3622047"
   id="svg2"
   version="1.1"
   inkscape:version="0.47 r22583"
   sodipodi:docname="drawing_meera_font.svg">
  <defs
     id="defs4">
    <marker
       inkscape:stockid="Arrow1Lstart"
       orient="auto"
       refY="0.0"
       refX="0.0"
       id="Arrow1Lstart"
       style="overflow:visible">
      <path
         id="path3891"
         d="M 0.0,0.0 L 5.0,-5.0 L -12.5,0.0 L 5.0,5.0 L 0.0,0.0 z "
         style="fill-rule:evenodd;stroke:#000000;stroke-width:1.0pt;marker-start:none"
         transform="scale(0.8) translate(12.5,0)" />
    </marker>
    <inkscape:path-effect
       effect="spiro"
       id="path-effect3886"
       is_visible="true" />
    <inkscape:path-effect
       effect="spiro"
       id="path-effect3882"
       is_visible="true" />
    <inkscape:path-effect
       effect="spiro"
       id="path-effect3878"
       is_visible="true" />
    <inkscape:path-effect
       effect="spiro"
       id="path-effect3087"
       is_visible="true" />
    <inkscape:perspective
       sodipodi:type="inkscape:persp3d"
       inkscape:vp_x="0 : 526.18109 : 1"
       inkscape:vp_y="0 : 1000 : 0"
       inkscape:vp_z="744.09448 : 526.18109 : 1"
       inkscape:persp3d-origin="372.04724 : 350.78739 : 1"
       id="perspective3006" />
    <inkscape:path-effect
       effect="spiro"
       id="path-effect3886-6"
       is_visible="true" />
    <inkscape:perspective
       id="perspective3022"
       inkscape:persp3d-origin="0.5 : 0.33333333 : 1"
       inkscape:vp_z="1 : 0.5 : 1"
       inkscape:vp_y="0 : 1000 : 0"
       inkscape:vp_x="0 : 0.5 : 1"
       sodipodi:type="inkscape:persp3d" />
    <inkscape:perspective
       id="perspective2850"
       inkscape:persp3d-origin="0.5 : 0.33333333 : 1"
       inkscape:vp_z="1 : 0.5 : 1"
       inkscape:vp_y="0 : 1000 : 0"
       inkscape:vp_x="0 : 0.5 : 1"
       sodipodi:type="inkscape:persp3d" />
    <inkscape:perspective
       id="perspective2850-1"
       inkscape:persp3d-origin="0.5 : 0.33333333 : 1"
       inkscape:vp_z="1 : 0.5 : 1"
       inkscape:vp_y="0 : 1000 : 0"
       inkscape:vp_x="0 : 0.5 : 1"
       sodipodi:type="inkscape:persp3d" />
  </defs>
  <sodipodi:namedview
     id="base"
     pagecolor="#ffffff"
     bordercolor="#666666"
     borderopacity="1.0"
     inkscape:pageopacity="0.0"
     inkscape:pageshadow="2"
     inkscape:zoom="0.9899495"
     inkscape:cx="325.1992"
     inkscape:cy="384.06431"
     inkscape:document-units="px"
     inkscape:current-layer="layer1"
     showgrid="false"
     inkscape:window-width="1440"
     inkscape:window-height="827"
     inkscape:window-x="0"
     inkscape:window-y="24"
     inkscape:window-maximized="1"
     inkscape:object-paths="true" />
  <metadata
     id="metadata7">
    <rdf:RDF>
      <cc:Work
         rdf:about="">
        <dc:format>image/svg+xml</dc:format>
        <dc:type
           rdf:resource="http://purl.org/dc/dcmitype/StillImage" />
        <dc:title></dc:title>
      </cc:Work>
    </rdf:RDF>
  </metadata>
  <g
     inkscape:label="Layer 1"
     inkscape:groupmode="layer"
     id="layer1">
    <rect
       style="fill:#d40000;fill-opacity:1;stroke:#d40000"
       id="rect3022"
       width="29.294424"
       height="29.294424"
       x="102.30965"
       y="708.91034" />
    <rect
       style="fill:#d40000;fill-opacity:1;stroke:#d40000"
       id="rect3022-9"
       width="29.294424"
       height="29.294424"
       x="182.09904"
       y="642.8291" />
    <path
       style="fill:none;stroke:#d40000;stroke-width:3.58859563;stroke-linecap:butt;stroke-linejoin:miter;stroke-miterlimit:4;stroke-opacity:1;stroke-dasharray:10.7657851, 3.58859503;stroke-dashoffset:0"
       d="m 122.63754,728.64369 c 0.56156,1.62884 0.24255,3.53275 -0.81926,4.8896 -1.06182,1.35684 -2.83322,2.12415 -4.54929,1.97061 -1.71607,-0.15355 -3.32311,-1.22316 -4.12718,-2.74695 -0.80407,-1.52379 -0.78001,-3.4541 0.0618,-4.95737 0.60914,-1.08779 1.60049,-1.92861 2.70456,-2.50772 1.10406,-0.57911 2.32101,-0.91218 3.54464,-1.15107 4.45091,-0.86894 9.04805,-0.53567 13.54293,0.0658 4.49487,0.60144 8.96582,1.46847 13.49665,1.66148 4.53083,0.193 9.19517,-0.32561 13.25036,-2.35565 2.02759,-1.01503 3.87978,-2.4041 5.33569,-4.14241 1.45591,-1.73832 2.50716,-3.83119 2.92136,-6.06051 0.45657,-2.45736 0.13321,-5.01606 -0.63917,-7.39314 -0.77238,-2.37708 -1.98056,-4.59007 -3.3103,-6.70641 -2.65947,-4.23268 -5.87626,-8.23222 -7.36044,-13.00564 -1.51001,-4.85651 -1.05554,-10.25007 1.01825,-14.89391 2.0738,-4.64383 5.713,-8.53025 10.08493,-11.12871 4.37194,-2.59846 9.44938,-3.93128 14.53314,-4.0768 5.08376,-0.14551 10.17105,0.87433 14.90881,2.7235 9.47552,3.69834 17.39668,10.585 24.08778,18.2461 6.6911,7.6611 12.32638,16.17515 18.60108,24.18086 6.01059,7.66875 12.64936,14.90819 20.34112,20.8893 7.69177,5.9811 16.48195,10.68726 25.9612,12.94127 9.47926,2.25401 19.67232,1.96534 28.73368,-1.61637 9.06136,-3.58172 16.87887,-10.5903 20.69212,-19.55668 2.60111,-6.1162 3.30318,-12.97143 2.36775,-19.55161 -0.93543,-6.58017 -3.47196,-12.88621 -7.03569,-18.49634 -7.12746,-11.22025 -18.12183,-19.4726 -29.71456,-25.9767 -11.59273,-6.50411 -23.97288,-11.4975 -35.68797,-17.77854 -11.71509,-6.28105 -22.97336,-14.06623 -30.73298,-24.85897 -8.48036,-11.79521 -12.22333,-26.50732 -12.70581,-41.02663 -0.48248,-14.51932 2.10998,-28.96497 5.32909,-43.13115 3.21911,-14.16618 7.08025,-28.21343 9.20299,-42.58484 2.12275,-14.3714 2.4607,-29.2279 -1.32471,-43.25338 -3.87242,-14.34785 -12.09025,-27.49226 -23.29305,-37.25718"
       id="path3085"
       inkscape:path-effect="#path-effect3087"
       inkscape:original-d="m 122.63754,728.64369 c -2.46186,0.5811 -6.98279,-1.47085 -9.43393,-0.84411 -1.80945,0.46268 4.58098,-4.51194 6.2492,-3.65879 6.39066,3.26827 41.66025,-10.83133 48.54699,-10.83133 11.35163,0 -5.21952,-15.87829 -11.30991,-27.10519 -44.23559,-81.54311 68.31422,4.95827 83.23399,15.05104 299.76638,202.78289 192.24586,97.76682 95.72812,12.65752 -49.68134,-43.80897 -100.80345,-91.21609 -100.80345,-106.66216 0,-21.70176 0.50156,-137.08323 0.50156,-169.996 0,-11.74006 -23.29305,-52.0753 -23.29305,-37.25718"
       inkscape:connector-curvature="0"
       sodipodi:nodetypes="cssssssssc" />
    <rect
       style="fill:#ffffff"
       id="rect2885"
       width="326.27927"
       height="380.82751"
       x="212.0571"
       y="399.9678" />
    <g
       style="font-size:40px;font-style:normal;font-variant:normal;font-weight:500;font-stretch:normal;line-height:125%;letter-spacing:0px;word-spacing:0px;fill:#000000;fill-opacity:1;stroke:none;font-family:WenQuanYi Zen Hei;-inkscape-font-specification:WenQuanYi Zen Hei Medium"
       id="text4535"
       transform="translate(-12,0)">
      <path
         d="m 131.14059,724.2265 4.67579,5.90625 -2.60157,1.89844 -4.14843,-6.22266 -4.11329,6.22266 -2.53125,-1.79297 4.5,-6.01172 -7.0664,-1.96875 0.91406,-2.98828 6.99609,2.56641 -0.3164,-7.41797 3.26953,0 -0.31641,7.41797 6.9961,-2.56641 0.91406,2.98828 -7.17188,1.96875"
         style="font-size:72px;font-weight:normal;font-family:Meera;-inkscape-font-specification:Meera"
         id="path3003" />
    </g>
    <g
       style="font-size:40px;font-style:normal;font-variant:normal;font-weight:500;font-stretch:normal;line-height:125%;letter-spacing:0px;word-spacing:0px;fill:#000000;fill-opacity:1;stroke:none;font-family:WenQuanYi Zen Hei;-inkscape-font-specification:WenQuanYi Zen Hei Medium"
       id="text4535-2"
       transform="translate(-231.11197,-163.64003)">
      <path
         d="m 429.85626,822.03918 4.67578,5.90625 -2.60156,1.89844 -4.14844,-6.22265 -4.11328,6.22265 -2.53125,-1.79297 4.5,-6.01172 -7.0664,-1.96875 0.91406,-2.98828 6.99609,2.56641 -0.3164,-7.41797 3.26953,0 -0.31641,7.41797 6.99609,-2.56641 0.91407,2.98828 -7.17188,1.96875"
         style="font-size:72px;font-weight:normal;font-family:Meera;-inkscape-font-specification:Meera"
         id="path3006" />
    </g>
    <path
       style="fill:#000000;fill-opacity:0"
       d="m 423.75042,732.01617 c -11.18018,-2.02861 -20.41418,-8.98627 -24.84928,-18.72353 -3.42134,-7.51154 -3.40013,-16.50684 0.0569,-24.13115 3.99076,-8.80145 12.48975,-15.56532 22.75357,-18.10833 4.46832,-1.10708 11.5135,-1.10708 15.98181,0 10.26383,2.54301 18.76281,9.30688 22.75358,18.10833 3.45702,7.62431 3.47823,16.61961 0.0569,24.13115 -3.00164,6.59009 -8.36841,12.10529 -15.0871,15.50438 -6.42658,3.25131 -14.70793,4.48174 -21.66638,3.21915 z m 14.62945,-3.90835 c 10.16559,-2.99786 17.29345,-9.84546 20.29849,-19.5004 1.0819,-3.47604 1.17361,-10.32612 0.18636,-13.91956 -2.71979,-9.89959 -10.8775,-17.71715 -21.30506,-20.41671 -4.29909,-1.11297 -11.4152,-1.11297 -15.71429,0 -10.42756,2.69956 -18.58527,10.51712 -21.30505,20.41671 -0.98725,3.59344 -0.89555,10.44352 0.18635,13.91956 2.92109,9.3852 10.02716,16.38419 19.5812,19.28614 3.96521,1.2044 5.66649,1.411 10.46608,1.27097 3.48176,-0.10157 5.15571,-0.33414 7.60592,-1.05671 z"
       id="path3052" />
    <rect
       style="fill:#d40000;fill-opacity:1;stroke:#d40000"
       id="rect3022-9-2"
       width="29.294424"
       height="29.294424"
       x="184.73863"
       y="704.83167" />
    <g
       style="font-size:40px;font-style:normal;font-variant:normal;font-weight:500;font-stretch:normal;line-height:125%;letter-spacing:0px;word-spacing:0px;fill:#000000;fill-opacity:1;stroke:none;font-family:WenQuanYi Zen Hei;-inkscape-font-specification:WenQuanYi Zen Hei Medium"
       id="text4535-2-2"
       transform="translate(-228.47238,-101.63748)">
      <path
         d="m 429.85626,822.03918 4.67578,5.90625 -2.60156,1.89844 -4.14844,-6.22265 -4.11328,6.22265 -2.53125,-1.79297 4.5,-6.01172 -7.0664,-1.96875 0.91406,-2.98828 6.99609,2.56641 -0.3164,-7.41797 3.26953,0 -0.31641,7.41797 6.99609,-2.56641 0.91407,2.98828 -7.17188,1.96875"
         style="font-size:72px;font-weight:normal;font-family:Meera;-inkscape-font-specification:Meera"
         id="path3006-5" />
    </g>
    <rect
       style="fill:#d40000;fill-opacity:1;stroke:#d40000"
       id="rect3022-9-9"
       width="29.294424"
       height="29.294424"
       x="111.44731"
       y="648.89325" />
    <g
       style="font-size:40px;font-style:normal;font-variant:normal;font-weight:500;font-stretch:normal;line-height:125%;letter-spacing:0px;word-spacing:0px;fill:#000000;fill-opacity:1;stroke:none;font-family:WenQuanYi Zen Hei;-inkscape-font-specification:WenQuanYi Zen Hei Medium"
       id="text4535-2-5"
       transform="translate(-301.76369,-157.57587)">
      <path
         d="m 429.85626,822.03918 4.67578,5.90625 -2.60156,1.89844 -4.14844,-6.22265 -4.11328,6.22265 -2.53125,-1.79297 4.5,-6.01172 -7.0664,-1.96875 0.91406,-2.98828 6.99609,2.56641 -0.3164,-7.41797 3.26953,0 -0.31641,7.41797 6.99609,-2.56641 0.91407,2.98828 -7.17188,1.96875"
         style="font-size:72px;font-weight:normal;font-family:Meera;-inkscape-font-specification:Meera"
         id="path3006-4" />
    </g>
    <text
       xml:space="preserve"
       style="font-size:40px;font-style:normal;font-variant:normal;font-weight:normal;font-stretch:normal;fill:#000000;fill-opacity:1;stroke:none;font-family:TeXGyreCursor;-inkscape-font-specification:TeXGyreCursor"
       x="270.04825"
       y="702.60168"
       id="text2889"><tspan
         sodipodi:role="line"
         id="tspan2891"
         x="270.04825"
         y="702.60168"
         style="font-size:80px;font-style:normal;font-variant:normal;font-weight:normal;font-stretch:normal;font-family:TeXGyreAdventor;-inkscape-font-specification:TeXGyreAdventor">transsip</tspan></text>
    <text
       xml:space="preserve"
       style="font-size:40px;font-style:normal;font-variant:normal;font-weight:normal;font-stretch:normal;fill:#000000;fill-opacity:1;stroke:none;font-family:TeXGyreCursor;-inkscape-font-specification:TeXGyreCursor"
       x="355.58307"
       y="732.27423"
       id="text2893"><tspan
         sodipodi:role="line"
         id="tspan2895"
         x="355.58307"
         y="732.27423"
         style="font-size:30px;font-style:normal;font-variant:normal;font-weight:normal;font-stretch:normal;font-family:TeXGyreAdventor;-inkscape-font-specification:TeXGyreAdventor">telephony  toolkit</tspan></text>
  </g>
</svg>
